<svg xmlns="http://www.w3.org/2000/svg" viewBox="0 0 800 380" width="800" height="380" role="img">
  <rect width="800" height="380" fill="#dbf0e5"/>
  <circle cx="712" cy="66" r="120" fill="#1f6b52" opacity="0.07"/>
  <circle cx="92" cy="330" r="90" fill="#1f6b52" opacity="0.07"/>
  <g fill="none" stroke="#1f6b52" stroke-width="13" stroke-linecap="round" stroke-linejoin="round">
   <rect x="200" y="80" width="180" height="270" rx="22"/>
   <path d="M262 112h56"/>
   <path d="M430 140h230a26 26 0 0 1 26 26v92a26 26 0 0 1-26 26H520l-52 44v-44h-38a26 26 0 0 1-26-26v-92a26 26 0 0 1 26-26Z"/>
   <path d="M480 190h130M480 226h96"/>
  </g>
</svg>